<svg width="11" height="11" viewBox="0 0 11 11" fill="none" xmlns="http://www.w3.org/2000/svg">
<path d="M5.38184 11C5.18374 10.997 4.99444 10.9046 4.85434 10.7424C4.71424 10.5801 4.63444 10.361 4.63184 10.1316V0.868421C4.63184 0.638104 4.71084 0.417213 4.85154 0.254355C4.99214 0.0914966 5.18294 0 5.38184 0C5.58074 0 5.77154 0.0914966 5.91214 0.254355C6.05284 0.417213 6.13184 0.638104 6.13184 0.868421V10.1316C6.12924 10.361 6.04944 10.5801 5.90934 10.7424C5.76924 10.9046 5.57994 10.997 5.38184 11Z" fill="#333333"/>
<path d="M10.1316 6.13159H0.868421C0.638104 6.13159 0.417213 6.05259 0.254355 5.91189C0.0914966 5.77129 0 5.58049 0 5.38159C0 5.18269 0.0914966 4.99189 0.254355 4.85129C0.417213 4.71059 0.638104 4.63159 0.868421 4.63159H10.1316C10.3619 4.63159 10.5828 4.71059 10.7456 4.85129C10.9085 4.99189 11 5.18269 11 5.38159C11 5.58049 10.9085 5.77129 10.7456 5.91189C10.5828 6.05259 10.3619 6.13159 10.1316 6.13159Z" fill="#333333"/>
</svg>
