<svg width="39" height="39" viewBox="0 0 39 39" fill="none" xmlns="http://www.w3.org/2000/svg">
<path fill-rule="evenodd" clip-rule="evenodd" d="M15.437 20.0512L21.3733 25.6365C21.6256 25.8739 22.0192 25.8739 22.2715 25.6364L22.6143 25.3138C22.8778 25.0657 22.8904 24.651 22.6423 24.3874C22.6332 24.3777 22.6238 24.3683 22.6142 24.3592L17.5277 19.5739L22.6141 14.7883C22.8777 14.5403 22.8903 14.1256 22.6423 13.862C22.6332 13.8523 22.6238 13.8428 22.6141 13.8337L22.2715 13.5114C22.0192 13.274 21.6256 13.274 21.3733 13.5114L15.437 19.0967C15.1734 19.3447 15.1607 19.7594 15.4088 20.023C15.4179 20.0327 15.4273 20.0421 15.437 20.0512Z" fill="#333333"/>
<rect x="1" y="1" width="37" height="37" rx="4" stroke="#F1F2F6" stroke-width="2"/>
</svg>
