<svg width="23" height="23" viewBox="0 0 23 23" fill="none" xmlns="http://www.w3.org/2000/svg">
<path d="M18.2084 3.83341H16.2917V2.87508C16.2917 2.62092 16.1908 2.37716 16.0111 2.19744C15.8313 2.01771 15.5876 1.91675 15.3334 1.91675C15.0792 1.91675 14.8355 2.01771 14.6558 2.19744C14.476 2.37716 14.3751 2.62092 14.3751 2.87508V3.83341H8.62508V2.87508C8.62508 2.62092 8.52411 2.37716 8.34439 2.19744C8.16467 2.01771 7.92091 1.91675 7.66675 1.91675C7.41258 1.91675 7.16883 2.01771 6.9891 2.19744C6.80938 2.37716 6.70841 2.62092 6.70841 2.87508V3.83341H4.79175C4.02925 3.83341 3.29798 4.13632 2.75882 4.67548C2.21965 5.21465 1.91675 5.94592 1.91675 6.70841V18.2084C1.91675 18.9709 2.21965 19.7022 2.75882 20.2413C3.29798 20.7805 4.02925 21.0834 4.79175 21.0834H18.2084C18.9709 21.0834 19.7022 20.7805 20.2413 20.2413C20.7805 19.7022 21.0834 18.9709 21.0834 18.2084V6.70841C21.0834 5.94592 20.7805 5.21465 20.2413 4.67548C19.7022 4.13632 18.9709 3.83341 18.2084 3.83341ZM19.1667 18.2084C19.1667 18.4626 19.0658 18.7063 18.8861 18.8861C18.7063 19.0658 18.4626 19.1667 18.2084 19.1667H4.79175C4.53758 19.1667 4.29383 19.0658 4.1141 18.8861C3.93438 18.7063 3.83341 18.4626 3.83341 18.2084V11.5001H19.1667V18.2084ZM19.1667 9.58341H3.83341V6.70841C3.83341 6.45425 3.93438 6.21049 4.1141 6.03077C4.29383 5.85105 4.53758 5.75008 4.79175 5.75008H6.70841V6.70841C6.70841 6.96258 6.80938 7.20634 6.9891 7.38606C7.16883 7.56578 7.41258 7.66675 7.66675 7.66675C7.92091 7.66675 8.16467 7.56578 8.34439 7.38606C8.52411 7.20634 8.62508 6.96258 8.62508 6.70841V5.75008H14.3751V6.70841C14.3751 6.96258 14.476 7.20634 14.6558 7.38606C14.8355 7.56578 15.0792 7.66675 15.3334 7.66675C15.5876 7.66675 15.8313 7.56578 16.0111 7.38606C16.1908 7.20634 16.2917 6.96258 16.2917 6.70841V5.75008H18.2084C18.4626 5.75008 18.7063 5.85105 18.8861 6.03077C19.0658 6.21049 19.1667 6.45425 19.1667 6.70841V9.58341Z" fill="#939BAB"/>
</svg>
