<svg width="17" height="16" viewBox="0 0 17 16" fill="none" xmlns="http://www.w3.org/2000/svg">
<path d="M14.8673 3.52457C15.0833 3.64925 15.0833 3.96092 14.8673 4.08559L10.9805 6.32966C10.7645 6.45433 10.4946 6.29849 10.4946 6.04915V5.20867C10.4946 5.02978 10.3496 4.88476 10.1707 4.88476H3.28209C3.1032 4.88476 2.95819 5.02978 2.95819 5.20867V8.87955C2.95819 9.05843 2.81317 9.20345 2.63428 9.20345H1.12273C0.943845 9.20345 0.798828 9.05843 0.798828 8.87955V3.04931C0.798828 2.87042 0.943845 2.7254 1.12273 2.7254H10.1707C10.3496 2.7254 10.4946 2.58039 10.4946 2.4015V1.56102C10.4946 1.31168 10.7645 1.15584 10.9805 1.28051L14.8673 3.52457Z" fill="#CBCDD2" stroke="white" stroke-width="0.518246"/>
<path d="M6.45227 13.802C6.45227 13.6231 6.59728 13.4781 6.77617 13.4781H15.8242C16.0031 13.4781 16.1481 13.3331 16.1481 13.1542V7.3239C16.1481 7.14502 16.0031 7 15.8242 7H14.3127C14.1338 7 13.9888 7.14502 13.9888 7.3239V10.9948C13.9888 11.1737 13.8437 11.3187 13.6649 11.3187H6.77617C6.59728 11.3187 6.45227 11.1737 6.45227 10.9948V10.1544C6.45227 9.90506 6.18235 9.74923 5.96641 9.87389L2.07961 12.1179C1.86367 12.2426 1.86367 12.5542 2.0796 12.6789L5.96641 14.923C6.18234 15.0477 6.45227 14.8918 6.45227 14.6425V13.802Z" fill="#CBCDD2" stroke="white" stroke-width="0.518246"/>
</svg>
