<svg width="13" height="13" viewBox="0 0 13 13" fill="none" xmlns="http://www.w3.org/2000/svg">
<path fill-rule="evenodd" clip-rule="evenodd" d="M12.3454 1.96393C12.7069 1.60238 12.7069 1.01619 12.3454 0.654643C11.9838 0.293094 11.3976 0.293093 11.0361 0.654643L6.5 5.19071L1.96393 0.654643C1.60238 0.293094 1.01619 0.293094 0.654643 0.654643C0.293094 1.01619 0.293094 1.60238 0.654643 1.96393L5.19071 6.5L0.654643 11.0361C0.293094 11.3976 0.293094 11.9838 0.654643 12.3454C1.01619 12.7069 1.60238 12.7069 1.96393 12.3454L6.5 7.80929L11.0361 12.3454C11.3976 12.7069 11.9838 12.7069 12.3454 12.3454C12.7069 11.9838 12.7069 11.3976 12.3454 11.0361L7.80929 6.5L12.3454 1.96393Z" fill="#333333"/>
</svg>
