<svg width="13" height="16" viewBox="0 0 13 16" fill="none" xmlns="http://www.w3.org/2000/svg">
<path d="M4.51011 2.26211H3.23511C3.23511 1.17836 4.06386 0.349609 5.14761 0.349609V1.62461C4.76511 1.62461 4.51011 1.87961 4.51011 2.26211Z" fill="#333333"/>
<path d="M9.61318 2.26211H8.33818C8.33818 1.87961 8.08318 1.62461 7.70068 1.62461V0.349609C8.78443 0.349609 9.61318 1.17836 9.61318 2.26211Z" fill="#333333"/>
<path d="M9.61011 4.17495H3.23511V2.26245H4.51011V2.89995H8.33511V2.26245H9.61011V4.17495Z" fill="#333333"/>
<path d="M7.69844 0.349609H5.14844V1.62461H7.69844V0.349609Z" fill="#333333"/>
<path d="M12.1601 4.1749H0.685107C0.302607 4.1749 0.0476074 3.9199 0.0476074 3.5374C0.0476074 3.1549 0.302607 2.8999 0.685107 2.8999H12.1601C12.5426 2.8999 12.7976 3.1549 12.7976 3.5374C12.7976 3.9199 12.5426 4.1749 12.1601 4.1749Z" fill="#333333"/>
<path d="M10.8882 15.65H1.96318C1.58068 15.65 1.32568 15.395 1.32568 15.0125V6.08745C1.32568 5.70495 1.58068 5.44995 1.96318 5.44995H10.8882C11.2707 5.44995 11.5257 5.70495 11.5257 6.08745V15.0125C11.5257 15.395 11.2707 15.65 10.8882 15.65ZM2.60068 14.375H10.2507V6.72495H2.60068V14.375Z" fill="#333333"/>
</svg>
