<svg width="12" height="8" viewBox="0 0 12 8" fill="none" xmlns="http://www.w3.org/2000/svg">
<path fill-rule="evenodd" clip-rule="evenodd" d="M6.81862 7.3924L11.8409 2.05447C12.0544 1.82756 12.0543 1.47368 11.8408 1.24681L11.5507 0.93856C11.3276 0.701569 10.9547 0.690272 10.7177 0.913327C10.709 0.921511 10.7006 0.929957 10.6924 0.938654L6.38944 5.51246L2.08617 0.93871C1.86316 0.70168 1.49022 0.690314 1.25319 0.913327C1.24447 0.921528 1.23601 0.929994 1.22781 0.93871L0.937931 1.24681C0.724466 1.47369 0.724466 1.82753 0.937931 2.05441L5.96025 7.3924C6.18327 7.62943 6.55621 7.64079 6.79324 7.41778C6.80195 7.40958 6.81042 7.40111 6.81862 7.3924Z" fill="#333333"/>
</svg>
