<svg width="12" height="12" viewBox="0 0 12 12" fill="none" xmlns="http://www.w3.org/2000/svg">
<circle cx="6" cy="6" r="5.5" stroke="#FF3A3A"/>
<path d="M6.00588 4.66C5.83321 4.66 5.68855 4.60633 5.57188 4.499C5.45988 4.387 5.40388 4.24933 5.40388 4.086C5.40388 3.92267 5.45988 3.78733 5.57188 3.68C5.68855 3.568 5.83321 3.512 6.00588 3.512C6.17855 3.512 6.32088 3.568 6.43288 3.68C6.54955 3.78733 6.60788 3.92267 6.60788 4.086C6.60788 4.24933 6.54955 4.387 6.43288 4.499C6.32088 4.60633 6.17855 4.66 6.00588 4.66ZM6.48888 5.122V9H5.50888V5.122H6.48888Z" fill="#FF3A3A"/>
</svg>
