<svg width="8" height="14" viewBox="0 0 8 14" fill="none" xmlns="http://www.w3.org/2000/svg">
<path fill-rule="evenodd" clip-rule="evenodd" d="M0.217424 7.08106L6.47459 12.9682C6.74058 13.2184 7.15539 13.2184 7.42134 12.9681L7.78267 12.628C8.06047 12.3666 8.07371 11.9294 7.81224 11.6516C7.80265 11.6414 7.79275 11.6315 7.78256 11.6219L2.42111 6.57797L7.78249 1.53365C8.06034 1.27223 8.07366 0.835064 7.81224 0.557215C7.80263 0.546998 7.79271 0.537076 7.78249 0.527464L7.42134 0.18767C7.15538 -0.0625566 6.74061 -0.0625566 6.47465 0.18767L0.217424 6.07488C-0.0604245 6.3363 -0.073747 6.77346 0.18767 7.05131C0.197283 7.06152 0.207208 7.07144 0.217424 7.08106Z" fill="#EDEDED"/>
</svg>
