<svg width="8" height="13" viewBox="0 0 8 13" fill="none" xmlns="http://www.w3.org/2000/svg">
<path fill-rule="evenodd" clip-rule="evenodd" d="M0.206274 6.71793L6.14256 12.3032C6.39491 12.5406 6.78845 12.5405 7.04076 12.3031L7.38356 11.9804C7.64711 11.7324 7.65968 11.3176 7.41162 11.0541C7.40252 11.0444 7.39312 11.035 7.38345 11.0259L2.29695 6.24064L7.38339 1.455C7.64699 1.20699 7.65963 0.79224 7.41162 0.52864C7.4025 0.518947 7.39308 0.509534 7.38339 0.500414L7.04076 0.178046C6.78844 -0.0593486 6.39494 -0.0593486 6.14262 0.178046L0.206274 5.76335C-0.0573258 6.01136 -0.0699651 6.4261 0.178046 6.6897C0.187166 6.69939 0.196581 6.70881 0.206274 6.71793Z" fill="#F1F2F6"/>
</svg>
