<svg width="27" height="27" viewBox="0 0 27 27" fill="none" xmlns="http://www.w3.org/2000/svg">
<circle cx="13" cy="13" r="12" fill="#FFD442"/>
<path d="M13.125 26.25C10.5292 26.25 7.99153 25.4803 5.83314 24.038C3.67475 22.5959 1.99249 20.546 0.999088 18.1478C0.00568549 15.7494 -0.254233 13.1104 0.252202 10.5645C0.758623 8.01844 2.00866 5.6798 3.84422 3.84422C5.6798 2.00866 8.01844 0.758623 10.5645 0.252202C13.1104 -0.254233 15.7494 0.00568549 18.1478 0.999088C20.546 1.99249 22.5959 3.67475 24.038 5.83314C25.4803 7.99153 26.25 10.5292 26.25 13.125C26.25 16.606 24.8672 19.9443 22.4058 22.4058C19.9443 24.8672 16.606 26.25 13.125 26.25ZM13.125 2.1875C10.9617 2.1875 8.84712 2.82897 7.04846 4.0308C5.24979 5.23263 3.8479 6.94083 3.02008 8.93941C2.19224 10.9379 1.97565 13.1371 2.39766 15.2588C2.81969 17.3804 3.86139 19.3293 5.39102 20.859C6.92066 22.3886 8.86954 23.4303 10.9912 23.8524C13.1129 24.2744 15.3121 24.0578 17.3106 23.2299C19.3092 22.402 21.0174 21.0001 22.2192 19.2016C23.421 17.4029 24.0625 15.2883 24.0625 13.125C24.0625 10.2242 22.9101 7.44221 20.859 5.39102C18.8078 3.33984 16.0258 2.1875 13.125 2.1875Z" fill="#333333"/>
<path d="M13.125 20.0519C12.8361 20.0481 12.56 19.9318 12.3557 19.7274C12.1514 19.5231 12.035 19.2471 12.0312 18.9582V7.2915C12.0312 7.00143 12.1465 6.72322 12.3516 6.51811C12.5567 6.31299 12.8349 6.19775 13.125 6.19775C13.4151 6.19775 13.6933 6.31299 13.8984 6.51811C14.1035 6.72322 14.2188 7.00143 14.2188 7.2915V18.9582C14.215 19.2471 14.0986 19.5231 13.8943 19.7274C13.69 19.9318 13.4139 20.0481 13.125 20.0519Z" fill="#333333"/>
<path d="M18.9583 14.2188H7.29163C7.00155 14.2188 6.72334 14.1035 6.51823 13.8984C6.31311 13.6933 6.19788 13.4151 6.19788 13.125C6.19788 12.8349 6.31311 12.5567 6.51823 12.3516C6.72334 12.1465 7.00155 12.0312 7.29163 12.0312H18.9583C19.2484 12.0312 19.5266 12.1465 19.7316 12.3516C19.9368 12.5567 20.052 12.8349 20.052 13.125C20.052 13.4151 19.9368 13.6933 19.7316 13.8984C19.5266 14.1035 19.2484 14.2188 18.9583 14.2188Z" fill="#333333"/>
</svg>
