<svg width="6" height="10" viewBox="0 0 6 10" fill="none" xmlns="http://www.w3.org/2000/svg">
<path fill-rule="evenodd" clip-rule="evenodd" d="M5.83681 4.55591L1.14394 0.140559C0.944445 -0.0471344 0.633334 -0.0471077 0.433876 0.140621L0.162879 0.395668C-0.0454736 0.591768 -0.0554056 0.919641 0.140695 1.12799C0.147889 1.13564 0.155315 1.14306 0.162961 1.15026L4.18405 4.93322L0.16301 8.71647C-0.0453763 8.91253 -0.0553684 9.2404 0.140695 9.44879C0.147904 9.45645 0.155347 9.46389 0.16301 9.4711L0.433876 9.72595C0.633342 9.91362 0.944422 9.91362 1.14389 9.72595L5.83681 5.31054C6.0452 5.11448 6.05519 4.78661 5.85913 4.57822C5.85192 4.57056 5.84447 4.56312 5.83681 4.55591Z" fill="#333333"/>
</svg>
