<svg width="8" height="13" viewBox="0 0 8 13" fill="none" xmlns="http://www.w3.org/2000/svg">
<path fill-rule="evenodd" clip-rule="evenodd" d="M7.79373 6.28207L1.85744 0.69685C1.60509 0.459425 1.21155 0.459458 0.959245 0.696928L0.616445 1.01955C0.352888 1.26761 0.340325 1.68235 0.588383 1.94591C0.597484 1.95558 0.606877 1.96497 0.616549 1.97407L5.70305 6.75936L0.616611 11.545C0.353011 11.793 0.340372 12.2078 0.588383 12.4714C0.597503 12.4811 0.606919 12.4905 0.616611 12.4996L0.959245 12.822C1.21156 13.0593 1.60506 13.0593 1.85738 12.822L7.79373 7.23665C8.05733 6.98864 8.06997 6.5739 7.82195 6.3103C7.81283 6.30061 7.80342 6.29119 7.79373 6.28207Z" fill="#333333"/>
</svg>
