<svg width="8" height="13" viewBox="0 0 8 13" fill="none" xmlns="http://www.w3.org/2000/svg">
<path fill-rule="evenodd" clip-rule="evenodd" d="M7.38357 5.76352L1.44729 0.178295C1.19494 -0.0591297 0.801395 -0.0590963 0.549088 0.178373L0.206288 0.500997C-0.0572681 0.749055 -0.0698314 1.1638 0.178227 1.42736C0.187328 1.43703 0.196721 1.44642 0.206393 1.45552L5.2929 6.24081L0.206455 11.0264C-0.0571451 11.2745 -0.0697842 11.6892 0.178227 11.9528C0.187347 11.9625 0.196762 11.9719 0.206455 11.981L0.549088 12.3034C0.801404 12.5408 1.19491 12.5408 1.44722 12.3034L7.38357 6.7181C7.64717 6.47009 7.65981 6.05535 7.4118 5.79175C7.40268 5.78205 7.39326 5.77264 7.38357 5.76352Z" fill="white"/>
</svg>
