<svg width="22" height="22" viewBox="0 0 22 22" fill="none" xmlns="http://www.w3.org/2000/svg">
<path fill-rule="evenodd" clip-rule="evenodd" d="M11.0004 3.66677C6.95032 3.66677 3.66707 6.95001 3.66707 11.0001C3.66707 15.0502 6.95032 18.3334 11.0004 18.3334C15.0505 18.3334 18.3337 15.0502 18.3337 11.0001C18.3337 6.95001 15.0505 3.66677 11.0004 3.66677ZM1.83374 11.0001C1.83374 5.93749 5.93779 1.83344 11.0004 1.83344C16.063 1.83344 20.1671 5.93749 20.1671 11.0001C20.1671 16.0627 16.063 20.1668 11.0004 20.1668C5.93779 20.1668 1.83374 16.0627 1.83374 11.0001ZM10.8431 6.19435C11.3494 6.19435 11.7598 6.60475 11.7598 7.11101V11.6642L14.9928 12.8933C15.466 13.0731 15.7038 13.6026 15.5239 14.0758C15.344 14.5491 14.8146 14.7868 14.3414 14.6069L10.5174 13.1533C10.1617 13.0181 9.92644 12.677 9.92644 12.2964V7.11101C9.92644 6.60475 10.3368 6.19435 10.8431 6.19435Z" fill="#939BAB"/>
</svg>
