<svg width="22" height="22" viewBox="0 0 22 22" fill="none" xmlns="http://www.w3.org/2000/svg">
<path d="M16.1925 13.2525C15.9596 13.1361 15.8125 12.898 15.8125 12.6376V9.3624C15.8125 9.10199 15.9596 8.86394 16.1925 8.74748L18.9425 7.37248C19.3997 7.14392 19.9375 7.47632 19.9375 7.9874V14.0126C19.9375 14.5237 19.3997 14.8561 18.9425 14.6275L16.1925 13.2525Z" stroke="#939BAB" stroke-width="1.9" stroke-miterlimit="10"/>
<path d="M15.125 6.1875H2.75C2.3703 6.1875 2.0625 6.4953 2.0625 6.875V15.125C2.0625 15.5047 2.3703 15.8125 2.75 15.8125H15.125C15.5047 15.8125 15.8125 15.5047 15.8125 15.125V6.875C15.8125 6.4953 15.5047 6.1875 15.125 6.1875Z" stroke="#939BAB" stroke-width="1.9" stroke-miterlimit="10"/>
</svg>
